<svg id="Capa_1" data-name="Capa 1" xmlns="http://www.w3.org/2000/svg" viewBox="0 0 300 300"><defs><style>.cls-1{fill:#fff;}.cls-2{fill:none;stroke:#66b330;stroke-miterlimit:10;stroke-width:6.73px;}.cls-3{fill:#66b32e;}</style></defs><circle class="cls-1" cx="147.88" cy="149.52" r="121.09"/><circle class="cls-2" cx="147.88" cy="149.52" r="135.27"/><path class="cls-3" d="M160.12,40.85c1.28,1.78,2.68,3.49,3.81,5.36a78.17,78.17,0,0,1,5.31,9.54A14.48,14.48,0,0,1,164.92,72c-1.28-3.44-2.52-6.77-3.75-10.1h-.83c-.72,3.47-1.44,6.94-2.28,11a23.36,23.36,0,0,1-3.24-2.62c-4.2-5-5-10.76-2.26-16.64,2.06-4.42,4.74-8.54,7.15-12.79Z"/><path class="cls-3" d="M142.71,227c-1.91-4.92-3.91-9.68-5.62-14.54-4-11.21-6.4-22.71-6-34.68A79.22,79.22,0,0,1,138,149c5-11.6,11.93-22.1,19.28-32.32a10.31,10.31,0,0,1,1-.91c-2.6,7.36-5,14.18-7.42,21-3.24,8.89-6.18,17.86-7.49,27.27-.3,2.11-.49,4.25-.61,6.38s.52,2.58,2.48,1.74A50.08,50.08,0,0,0,153,168.2c8.8-5.73,17.49-11.62,26.22-17.46a5.92,5.92,0,0,1,2.6-1.14c-2,2.77-3.77,5.66-5.89,8.3a57.64,57.64,0,0,1-21.67,17c-1.19.53-2.38,1.09-3.56,1.66-5.48,2.65-7.75,5.82-6.63,11.7,1.92,10.07,4.08,20.15,7,30,2.46,8.37,8.85,12.64,17.64,13.24,6.05.41,12.16.6,18.11,1.65,7,1.24,12.18,5.55,16.36,11.61-4.08,1.11-8,2.08-11.86,3.24-17.11,5.13-34.6,6-52.31,5.09-13.06-.65-25.62-3.79-38.24-6.76a2.22,2.22,0,0,1-1.43-1.18,7.74,7.74,0,0,1,2.85-8.89c4.73-3.34,9.4-6.8,14.34-9.83,6-3.69,12.19-4.19,18.07.63a3,3,0,0,0,1.89.59C138.48,227.48,140.53,227.23,142.71,227Z"/><path class="cls-3" d="M194.42,143.2l-13.73,4a9.4,9.4,0,0,1,1.36-7.06c3.12-5.56,7.62-9.29,14.07-10.52,7.44-1.42,14.83-.72,22.67,0-1.56,3.36-2.77,6.57-4.49,9.47-2.27,3.85-4.54,7.81-7.51,11.09-5,5.49-11.5,7.29-18.83,5.7a24,24,0,0,1-2.5-.85,26.19,26.19,0,0,1,1.77-2.44c1.92-2.08,3.93-4.08,5.84-6.17a27.78,27.78,0,0,0,1.88-2.54Z"/><path class="cls-3" d="M91.36,122.6c7.41-4.29,14.58-8.43,23-9.42,6.67-.78,14.54,3.43,17.32,9.2L118.06,125l-.14,1,13.18,5.09c-2.39,3.61-5.68,5.15-9.36,6a20.1,20.1,0,0,1-15.3-2.55A87,87,0,0,1,91.36,122.6Z"/><path class="cls-3" d="M162.83,110.65a13,13,0,0,1-3.76-14,31.56,31.56,0,0,1,4.62-8c2.26-2.92,5-5.45,7.75-8.35,2.91,5.75,5.49,11.17,6,17.23.44,5-1.58,9.16-5.18,12.55a19.7,19.7,0,0,1-2.8,1.76c-.47-3.86-.9-7.33-1.32-10.8l-.78-.11Z"/><path class="cls-3" d="M146.23,110.53l-4.35-3.29c-1.39-1-2.79-2.08-4.19-3.12l-.62.46c1.25,3.28,2.5,6.56,4,10.53A32.15,32.15,0,0,1,135.6,114a14.41,14.41,0,0,1-9.28-11.32c-.84-4.93-1-10-1.49-15.4,6.61,2.09,12.66,4,17.38,8.26A14.3,14.3,0,0,1,146.82,109,9.48,9.48,0,0,1,146.23,110.53Z"/><path class="cls-3" d="M206.18,102.09c-2.83,6.06-5.22,12.37-10.63,16.76-3.76,3-10.12,3.87-14.23,1.74l7.11-7.86-.33-.68-10.95,3c.63-2.17.84-3.89,1.6-5.32a14.66,14.66,0,0,1,10.48-8C194.17,100.82,202.75,100.9,206.18,102.09Z"/><path class="cls-3" d="M131.48,148.94l-9,1.79-.11.63,8.79,3.43a8,8,0,0,1-5.33,3.83c-3.63,1-7.34,1-10.59-1.11-3.78-2.48-7.37-5.24-11.42-8.16,5.44-3.25,10.29-6,15.94-6.68C123.59,142.18,130,144.76,131.48,148.94Z"/><path class="cls-3" d="M181.16,124c-2.83,5.63-4.54,11.67-10.81,14.32a9.39,9.39,0,0,1-8.18-.08l5.36-5.88-.37-.52L159.51,134a10.09,10.09,0,0,1,8.53-9.82C172.2,123.59,176.5,124,181.16,124Z"/><path class="cls-3" d="M124.16,61.17c3.75,2,7.66,3.71,11.18,6,3.77,2.48,5.13,7.72,3.51,12l-6.18-4.94-.53.38,2.68,7.46a9.6,9.6,0,0,1-9.43-5.32c-2.44-4.79-2.13-10-2-15.08Z"/><path class="cls-3" d="M86.77,86.45l-7.83-.34-.31.62,6.52,4.44a6.8,6.8,0,0,1-5.2,2.3c-3.06.21-6-.43-8.24-2.64a97.61,97.61,0,0,1-8-9.2c6-1.81,11.64-4.54,17.73-1.5A9.65,9.65,0,0,1,86.77,86.45Z"/><path class="cls-3" d="M65.27,114.35c3.8-2,7.47-4.41,11.43-6,4.2-1.74,9.23,0,11.92,3.74l-3.86,1.28c-1.19.4-2.39.78-3.59,1.17l0,.63,7.74,1.95c-1.61,3-4.13,4.12-7,4.69a11.15,11.15,0,0,1-7.6-1.2c-3-1.65-5.95-3.44-8.92-5.17Z"/><path class="cls-3" d="M77.15,142.57c4.81-3.22,9.14-7.33,15.48-7a10,10,0,0,1,7.92,4.19L93,142.23l0,.58,7.7,2c-1.36,3.67-7.38,5.74-11.78,4.51A34.38,34.38,0,0,1,77.15,142.57Z"/><path class="cls-3" d="M181,69.36l-6.43,4.32c-1.6-3.43,0-8.5,3.69-11.18,3.93-2.88,8.6-3.82,13.63-4.83-.87,6.22-.69,12.45-5.8,16.89A9.22,9.22,0,0,1,178.39,77c1.09-2.51,2.12-4.87,3.14-7.23Z"/><path class="cls-3" d="M214.13,96.43l3.17-7.21-.48-.42-6.7,4.52c-1.22-4.5.35-7.88,3.2-10.73,2.57-2.58,10.33-5.26,14.39-5.13-1,5.92-.68,12.23-5.9,16.62A9.33,9.33,0,0,1,214.13,96.43Z"/><path class="cls-3" d="M104.7,97.3l6.65,4.35a8.3,8.3,0,0,1-8.16,2.07A12.56,12.56,0,0,1,97.54,101c-2.87-2.63-5.29-5.74-8-8.7,5.89-3.76,15.6-3.93,19.91-.4A27.26,27.26,0,0,1,113,96.22l-.43.53h-7.69Z"/><path class="cls-3" d="M226.89,104.16C225.82,110.81,220,118,214.54,119a29.9,29.9,0,0,1-5.76.06l-.3-.84,5.17-5.65-.25-.57-7.86,2.06a10.32,10.32,0,0,1,6.91-9.31C217.14,102.89,222,103.62,226.89,104.16Z"/><path class="cls-3" d="M113.67,79.16l-6-4.79-.51.36,2.59,7.5c-3.36.47-5.61-1.11-7.64-3.09a11.39,11.39,0,0,1-3.38-7.56c-.25-3.27-.38-6.55-.59-10.35,6.12,2.53,12.27,3.88,15.35,10A8.85,8.85,0,0,1,113.67,79.16Z"/><path class="cls-3" d="M155.31,94.22l-4.15-6.44-.54.19v7.88c-3.84-.22-8-6.2-7.28-10.83.65-4.12,1.84-8.14,2.81-12.27,6.51,2.45,12.17,10.88,11.46,16.82a24.59,24.59,0,0,1-1.53,4.73Z"/><path class="cls-3" d="M185.12,96.28l3.11-7-.49-.41-6.49,4.33c-1.19-1.93-.74-3.8-.14-5.59a11.29,11.29,0,0,1,5.68-6.79,41.21,41.21,0,0,1,11.75-3.6c-.33,4.83-.87,9.32-2.89,13.46C193.76,94.52,189.09,97,185.12,96.28Z"/><path class="cls-3" d="M235.43,119l-5.07-.31c1.16-5.19,7.87-6.37,15.93-1.55-4.82,6.57-10.84,9.17-15.38,4.95l4.63-2.56Z"/><path class="cls-3" d="M222.21,141.33l4.44-1.51.07-.41L222,138.06c2.92-4.66,8.72-4.05,15,1.35C231.49,144.47,225.54,146.07,222.21,141.33Z"/></svg>